<svg xmlns:dc="http://purl.org/dc/elements/1.1/" xmlns:cc="http://creativecommons.org/ns#" xmlns:rdf="http://www.w3.org/1999/02/22-rdf-syntax-ns#" xmlns:svg="http://www.w3.org/2000/svg" xmlns="http://www.w3.org/2000/svg" xmlns:sodipodi="http://sodipodi.sourceforge.net/DTD/sodipodi-0.dtd" xmlns:inkscape="http://www.inkscape.org/namespaces/inkscape" height="400" width="400" id="svg2" version="1.1" inkscape:version="0.91 r13725" sodipodi:docname="github.svg">
  <metadata id="metadata10" fill="#f5c2e7">
    <rdf:RDF fill="#f5c2e7">
      <cc:Work rdf:about="" fill="#f5c2e7">
        <dc:format fill="#f5c2e7">image/svg+xml</dc:format>
        <dc:type rdf:resource="http://purl.org/dc/dcmitype/StillImage" fill="#f5c2e7"/>
        <dc:title fill="#f5c2e7"/>
      </cc:Work>
    </rdf:RDF>
  </metadata>
  <defs id="defs8" fill="#f5c2e7"/>
  <sodipodi:namedview pagecolor="#c8c8a9" bordercolor="#83af9b" borderopacity="1" objecttolerance="10" gridtolerance="10" guidetolerance="10" inkscape:pageopacity="0" inkscape:pageshadow="2" inkscape:window-width="1920" inkscape:window-height="1056" id="namedview6" showgrid="false" inkscape:zoom="0.944" inkscape:cx="250.14396" inkscape:cy="299.8625" inkscape:window-x="1920" inkscape:window-y="24" inkscape:window-maximized="1" inkscape:current-layer="svg2" fill="#f5c2e7"/>
  <path d="m 0,219.0625 q 0,50 15,79.79166 16.041667,31.66667 49.791667,46.875 34.166666,16.04167 69.791663,19.79167 32.08334,3.75 69.16667,3.75 16.04167,0 40.20833,-1.25 20.20834,-1.25 43.02084,-5.52083 22.8125,-4.27084 39.27083,-11.14584 Q 345,343.4375 360.83333,330 376.66667,316.5625 385.41667,298.85416 400,269.0625 400,219.0625 q 0,-57.08334 -32.70833,-95.41667 6.45833,-19.375 6.45833,-40.624995 0,-28.125 -12.08333,-52.29167 -24.79167,0 -44.27084,8.75 -19.47916,8.75 -46.14583,29.58334 -32.70833,-7.70834 -67.5,-7.70834 -37.91667,0 -74.16667,8.33334 -27.29166,-21.45834 -46.77083,-30.20834 -19.479167,-8.75 -44.270833,-8.75 Q 26.25,54.687505 26.25,83.020835 q 0,21.458325 6.458333,41.041675 Q 0,162.39583 0,219.0625 Z m 53.75,42.29166 q 0,-29.58333 16.979167,-49.375 16.979166,-19.79166 44.687503,-19.79166 11.04166,0 46.875,5.20833 18.33333,2.70833 37.70833,2.70833 19.375,0 37.91667,-2.70833 36.45833,-5.20833 46.875,-5.20833 27.70833,0 44.58333,19.79166 16.875,19.79167 16.875,49.375 0,21.04168 -7.70833,37.08334 -7.70834,15.41666 -19.27084,24.47916 -11.5625,9.06251 -29.47916,14.47917 -29.58334,8.95833 -69.58334,8.95833 l -40.41666,0 q -19.79167,0 -35.83334,-1.875 Q 126.875,342.8125 109.58333,337.1875 92.291667,331.5625 81.041667,323.02084 68.75,313.4375 61.25,297.5 q -7.5,-15.9375 -7.5,-36.14584 z m 38.541667,0 q 0,9.79168 3.125,19.79168 3.125,10.83332 10.729163,18.64582 7.60417,7.8125 16.97917,7.8125 10,0 17.5,-8.125 13.125,-15.20832 13.125,-38.125 0,-9.58333 -2.70833,-19.58333 -3.125,-10.83332 -10.72917,-18.64582 -7.60417,-7.8125 -17.1875,-7.8125 -10,0 -17.5,8.33332 -13.333333,14.375 -13.333333,37.70833 z m 153.958333,0 q 0,9.79168 3.125,19.79168 3.125,10.83332 10.625,18.64582 7.5,7.8125 16.875,7.8125 10.20833,0 17.70833,-8.125 13.125,-15.20832 13.125,-38.125 0,-8.95833 -2.91666,-19.58333 -3.125,-10.83332 -10.72917,-18.64582 -7.60417,-7.8125 -17.1875,-7.8125 -10,0 -17.08333,8.33332 -13.54167,14.375 -13.54167,37.70833 z" id="github" inkscape:connector-curvature="0" fill="#f5c2e7">
    <title id="title23282">github</title>
  </path>
</svg>